<svg xmlns="http://www.w3.org/2000/svg" viewBox="0 0 400 300" width="100%" height="100%">
  <defs>
    <radialGradient id="bgGradHelix" cx="50%" cy="50%" r="70%">
      <stop offset="0%" stop-color="#34495e" />
      <stop offset="100%" stop-color="#141e28" />
    </radialGradient>
    <filter id="shadowHelix" x="-20%" y="-20%" width="150%" height="150%">
      <feDropShadow dx="0" dy="10" stdDeviation="6" flood-color="#000" flood-opacity="0.6" />
    </filter>
    <filter id="ballShadow" x="-50%" y="-50%" width="200%" height="200%">
      <feDropShadow dx="0" dy="5" stdDeviation="3" flood-color="#000" flood-opacity="0.8" />
    </filter>
  </defs>

  <!-- Background -->
  <rect width="400" height="300" fill="url(#bgGradHelix)" />

  <!-- Scaling effect to look like falling -->
  <g transform="translate(200, 50)">
    
    <!-- Central Pole -->
    <rect x="-10" y="0" width="20" height="300" fill="#ffffff" opacity="0.8" />

    <!-- Rotating Platforms Wrapper -->
    <g filter="url(#shadowHelix)">
      <!-- Subtle rotation of the whole tower -->
      <animateTransform attributeName="transform" type="translate" values="0,50; 0,-150" dur="3s" repeatCount="indefinite" />
      
      <!-- Platform 1 -->
      <g transform="translate(0, 50)">
        <ellipse cx="0" cy="0" rx="80" ry="25" fill="#3498db" />
        <!-- Gap simulation -->
        <polygon points="0,0 60,30 100,0" fill="#1e2c3a" />
      </g>
      
      <!-- Platform 2 with Danger zone -->
      <g transform="translate(0, 150)">
        <ellipse cx="0" cy="0" rx="80" ry="25" fill="#3498db" />
        <path d="M 0 0 L -80 0 A 80 25 0 0 0 0 25 Z" fill="#e74c3c" />
        <polygon points="0,0 80,0 60,-30" fill="#1e2c3a" />
      </g>

      <!-- Platform 3 -->
      <g transform="translate(0, 250)">
        <ellipse cx="0" cy="0" rx="80" ry="25" fill="#3498db" />
        <polygon points="0,0 -40,30 -90,0" fill="#1e2c3a" />
      </g>

      <!-- Platform 4 -->
      <g transform="translate(0, 350)">
        <ellipse cx="0" cy="0" rx="80" ry="25" fill="#3498db" />
        <polygon points="0,0 60,30 100,0" fill="#1e2c3a" />
      </g>
    </g>

    <!-- Bouncing Ball -->
    <g transform="translate(40, 100)" filter="url(#ballShadow)">
      <animateTransform attributeName="transform" type="translate" values="40,100; 40,50; 40,100" dur="0.5s" repeatCount="indefinite" calcMode="spline" keySplines="0.42 0 1 1; 0.25 0.1 0.25 1" />
      <circle cx="0" cy="0" r="10" fill="#ff0055" />
    </g>

  </g>
</svg>
