<svg xmlns="http://www.w3.org/2000/svg" viewBox="0 0 400 300" width="100%" height="100%">
  <!-- Background: #a9cce3 -->
  <rect width="400" height="300" fill="#a9cce3" />

  <g transform="translate(200, 180) scale(1.5)">
    <!-- Path blocks (white #fff, shadow #d6eaf8) -->
    
    <!-- Block 1 (bottom left) -->
    <g transform="translate(-40, 20)">
      <polygon points="0,-15 20,-5 0,5 -20,-5" fill="#ffffff" />
      <polygon points="-20,-5 0,5 0,25 -20,15" fill="#d6eaf8" />
      <polygon points="0,5 20,-5 20,15 0,25" fill="#eaf2f8" />
    </g>

    <!-- Block 2 (center) -->
    <g transform="translate(-20, 10)">
      <polygon points="0,-15 20,-5 0,5 -20,-5" fill="#ffffff" />
      <polygon points="-20,-5 0,5 0,25 -20,15" fill="#d6eaf8" />
      <polygon points="0,5 20,-5 20,15 0,25" fill="#eaf2f8" />
    </g>

    <!-- Block 3 (right) -->
    <g transform="translate(0, 0)">
      <polygon points="0,-15 20,-5 0,5 -20,-5" fill="#ffffff" />
      <polygon points="-20,-5 0,5 0,25 -20,15" fill="#d6eaf8" />
      <polygon points="0,5 20,-5 20,15 0,25" fill="#eaf2f8" />
    </g>
    
    <!-- Block 4 (up-left) -->
    <g transform="translate(20, -10)">
      <polygon points="0,-15 20,-5 0,5 -20,-5" fill="#ffffff" />
      <polygon points="-20,-5 0,5 0,25 -20,15" fill="#d6eaf8" />
      <polygon points="0,5 20,-5 20,15 0,25" fill="#eaf2f8" />
    </g>

    <!-- Block 5 (further left) -->
    <g transform="translate(0, -20)">
      <polygon points="0,-15 20,-5 0,5 -20,-5" fill="#ffffff" />
      <polygon points="-20,-5 0,5 0,25 -20,15" fill="#d6eaf8" />
      <polygon points="0,5 20,-5 20,15 0,25" fill="#eaf2f8" />
    </g>
    
    <!-- Block 6 (up-right) -->
    <g transform="translate(20, -30)">
      <polygon points="0,-15 20,-5 0,5 -20,-5" fill="#ffffff" />
      <polygon points="-20,-5 0,5 0,25 -20,15" fill="#d6eaf8" />
      <polygon points="0,5 20,-5 20,15 0,25" fill="#eaf2f8" />
    </g>

    <!-- Ball (Red #e74c3c) -->
    <g>
      <animateTransform attributeName="transform" type="translate" values="-40,10; 0,-10; 20,-20; 0,-30;" dur="2s" repeatCount="indefinite" />
      <circle cx="0" cy="-15" r="8" fill="#e74c3c" />
      <circle cx="-2" cy="-17" r="2" fill="#ff7668" /> <!-- Highlight -->
    </g>
    
    <!-- Crystal (Yellow #f1c40f) -->
    <g transform="translate(20, -45)">
      <animateTransform attributeName="transform" type="translate" values="20,-45; 20,-48; 20,-45" dur="1s" repeatCount="indefinite" />
      <polygon points="0,-6 4,0 0,6 -4,0" fill="#f1c40f" />
      <polygon points="-4,0 0,-6 0,6" fill="#f39c12" />
    </g>
  </g>
</svg>
