<svg xmlns="http://www.w3.org/2000/svg" viewBox="0 0 400 300" width="100%" height="100%">
  <defs>
    <linearGradient id="bgGrad2" x1="0%" y1="0%" x2="100%" y2="100%">
      <stop offset="0%" stop-color="#85c1e9" />
      <stop offset="100%" stop-color="#3498db" />
    </linearGradient>
    <filter id="dropShadowPath" x="-20%" y="-20%" width="150%" height="150%">
      <feDropShadow dx="0" dy="8" stdDeviation="6" flood-color="#1a5276" flood-opacity="0.6" />
    </filter>
    <filter id="dropShadowBall" x="-50%" y="-50%" width="200%" height="200%">
      <feDropShadow dx="0" dy="4" stdDeviation="3" flood-color="#000000" flood-opacity="0.5" />
    </filter>
  </defs>

  <!-- Background -->
  <rect width="400" height="300" fill="url(#bgGrad2)" />

  <g transform="translate(200, 180) scale(1.5)">
    <!-- Path blocks (white #fff, shadow #d6eaf8) -->
    <g filter="url(#dropShadowPath)">
      <!-- Block 1 (bottom left) -->
      <g transform="translate(-40, 20)">
        <polygon points="0,-15 20,-5 0,5 -20,-5" fill="#ffffff" />
        <polygon points="-20,-5 0,5 0,25 -20,15" fill="#a9cce3" />
        <polygon points="0,5 20,-5 20,15 0,25" fill="#d6eaf8" />
      </g>

      <!-- Block 2 (center) -->
      <g transform="translate(-20, 10)">
        <polygon points="0,-15 20,-5 0,5 -20,-5" fill="#ffffff" />
        <polygon points="-20,-5 0,5 0,25 -20,15" fill="#a9cce3" />
        <polygon points="0,5 20,-5 20,15 0,25" fill="#d6eaf8" />
      </g>

      <!-- Block 3 (right) -->
      <g transform="translate(0, 0)">
        <polygon points="0,-15 20,-5 0,5 -20,-5" fill="#ffffff" />
        <polygon points="-20,-5 0,5 0,25 -20,15" fill="#a9cce3" />
        <polygon points="0,5 20,-5 20,15 0,25" fill="#d6eaf8" />
      </g>
      
      <!-- Block 4 (up-left) -->
      <g transform="translate(20, -10)">
        <polygon points="0,-15 20,-5 0,5 -20,-5" fill="#ffffff" />
        <polygon points="-20,-5 0,5 0,25 -20,15" fill="#a9cce3" />
        <polygon points="0,5 20,-5 20,15 0,25" fill="#d6eaf8" />
      </g>

      <!-- Block 5 (further left) -->
      <g transform="translate(0, -20)">
        <polygon points="0,-15 20,-5 0,5 -20,-5" fill="#ffffff" />
        <polygon points="-20,-5 0,5 0,25 -20,15" fill="#a9cce3" />
        <polygon points="0,5 20,-5 20,15 0,25" fill="#d6eaf8" />
      </g>
      
      <!-- Block 6 (up-right) -->
      <g transform="translate(20, -30)">
        <polygon points="0,-15 20,-5 0,5 -20,-5" fill="#ffffff" />
        <polygon points="-20,-5 0,5 0,25 -20,15" fill="#a9cce3" />
        <polygon points="0,5 20,-5 20,15 0,25" fill="#d6eaf8" />
      </g>
    </g>

    <!-- Ball (Red #e74c3c) -->
    <g filter="url(#dropShadowBall)">
      <animateTransform attributeName="transform" type="translate" values="-40,10; 0,-10; 20,-20; 0,-30;" dur="2s" repeatCount="indefinite" />
      <circle cx="0" cy="-15" r="8" fill="#e74c3c" />
      <circle cx="-2" cy="-17" r="2" fill="#ff7668" /> <!-- Highlight -->
    </g>
    
    <!-- Crystal (Yellow #f1c40f) -->
    <g transform="translate(20, -45)" filter="url(#dropShadowBall)">
      <animateTransform attributeName="transform" type="translate" values="20,-45; 20,-48; 20,-45" dur="1s" repeatCount="indefinite" />
      <polygon points="0,-6 4,0 0,6 -4,0" fill="#f1c40f" />
      <polygon points="-4,0 0,-6 0,6" fill="#f39c12" />
    </g>
  </g>
</svg>
